<svg xmlns="http://www.w3.org/2000/svg" width="175" height="200" viewBox="0 0 175 200"><path d="M53.16,134a24.34,24.34,0,0,1-15.88-1.09c-9.61-4.36-12.6-14.48-13.88-18.8-4.35-14.7,2-28.67,4.92-34a47.39,47.39,0,0,1,7.75-10.26A60.3,60.3,0,0,0,47.71,53.25a77.11,77.11,0,0,0,6.72-22.13,7,7,0,1,0-13.85-2.05A63.69,63.69,0,0,1,35.09,47.2,46.88,46.88,0,0,1,25.8,60.38a61,61,0,0,0-9.75,13c-3.77,6.86-11.92,25-6.07,44.71,1.5,5.09,6.08,20.58,21.51,27.58a36.05,36.05,0,0,0,15,3.18,41.89,41.89,0,0,0,10.91-1.48" style="fill:#9da5b4"/><path d="M46.48,149.87a37,37,0,0,1-15.4-3.27c-15.85-7.19-20.53-23-22.06-28.2-5.95-20.12,2.32-38.51,6.15-45.48A62,62,0,0,1,25.06,59.7a45.88,45.88,0,0,0,9.12-12.93,62.16,62.16,0,0,0,5.41-17.85,8,8,0,0,1,15.83,2.34,78.7,78.7,0,0,1-6.8,22.42A61.58,61.58,0,0,1,36.81,70.56a46.74,46.74,0,0,0-7.62,10.06c-2.86,5.22-9.07,18.9-4.83,33.24,1.24,4.19,4.14,14,13.33,18.17a23.25,23.25,0,0,0,15.22,1A1,1,0,1,1,53.4,135a25.29,25.29,0,0,1-16.54-1.15c-10-4.55-13.1-15-14.42-19.42-4.45-15.07,2-29.34,5-34.77a48.07,48.07,0,0,1,7.9-10.45A60,60,0,0,0,46.81,52.82,76.51,76.51,0,0,0,53.44,31a6,6,0,0,0-11.87-1.76A64.51,64.51,0,0,1,36,47.64a47.76,47.76,0,0,1-9.46,13.42,60.2,60.2,0,0,0-9.61,12.82c-3.71,6.75-11.72,24.55-6,44,1.47,5,6,20.13,21,26.94a34.91,34.91,0,0,0,14.58,3.1,41,41,0,0,0,10.64-1.44,1,1,0,1,1,.53,1.92A42.45,42.45,0,0,1,46.48,149.87Z" style="fill:#fff"/><path d="M137.19,16.57a462.48,462.48,0,0,1,2.44,80.24c-2.49,43.38-9.26,52.36-13.42,56.74C105.6,175.24,68.6,168.78,60,167.28c-11.16-1.94-21.42-3.9-26.44-12-8.06-12.94,1.72-33.35,10.66-47.4A148,148,0,0,0,62.35,66l6.81-25.94s5.18-18.91,15.56-23.49v15s18.91-6.71,38.13,0Z" style="fill:#9da5b4"/><path d="M45.37,163.91A93.93,93.93,0,0,0,60,167.28c8.6,1.5,45.6,8,66.21-13.73,4.16-4.38,10.93-13.36,13.42-56.74,1.59-27.8.79-45.58.32-45.59s3.75,27.09-7.11,57.33c-4.63,12.89-12.1,33.7-33.26,46.68C77.18,169,53.31,165.45,45.37,163.91Z" style="fill:#8e95a0;opacity:0.62"/><path d="M82.09,170.34a130.09,130.09,0,0,1-22.26-2.07c-10.69-1.87-21.74-3.8-27.12-12.43C24.47,142.6,34,122.18,43.37,107.37a146.59,146.59,0,0,0,18-41.62l6.81-25.94c.22-.8,5.44-19.44,16.12-24.15l1.4-.62V30.15c4.64-1.39,20.45-5.28,36.86.22l15.37-16,.24,2.1a465.48,465.48,0,0,1,2.45,80.42c-2.62,45.71-10.1,53.59-13.7,57.37C119.44,162.13,105.91,170.34,82.09,170.34ZM83.71,18.22c-8.89,5.34-13.54,21.93-13.59,22.11l-6.8,25.92a148.87,148.87,0,0,1-18.26,42.2c-16.5,25.94-14.9,39.51-10.65,46.33,4.9,7.88,15.51,9.73,25.77,11.52,37.25,6.5,56.07-3.72,65.3-13.43,5.23-5.51,10.88-16.48,13.15-56.12a464.05,464.05,0,0,0-2.19-77.95L123.13,32.68l-.61-.22c-18.65-6.51-37.29-.06-37.47,0l-1.33.47Z" style="fill:#fff"/><path d="M78.8,130.57l-.23,41.13a6,6,0,0,0,2.87,5.15L88.23,181A7,7,0,0,0,98,178.53a7.18,7.18,0,0,0-2.64-9.6l-2.71-1.66.22-40.56" style="fill:#9da5b4"/><path d="M91.88,183a8,8,0,0,1-4.18-1.18l-6.78-4.16a7,7,0,0,1-3.35-6l.23-41.14a1,1,0,0,1,1-1h0a1,1,0,0,1,1,1l-.23,41.13A5,5,0,0,0,82,176l6.79,4.16a5.94,5.94,0,0,0,3.13.88,6,6,0,0,0,5.21-3,6.18,6.18,0,0,0-2.3-8.24l-3.19-2,.22-41.13a1,1,0,0,1,1-1h0a1,1,0,0,1,1,1l-.22,40,2.24,1.37a8.2,8.2,0,0,1,3,10.95A8,8,0,0,1,91.88,183Z" style="fill:#fff"/><path d="M43.08,160l.06,7.72S42.38,173,46.32,174l10.48,2.76a4,4,0,0,0,4.89-5.19c-.65-1.82-1.56-4.78-3.59-6.65,1.4-5.31.91-21.12-13.85-30.42" style="fill:#9da5b4"/><path d="M57.84,177.89a5.27,5.27,0,0,1-1.3-.17L46.06,175c-3.74-1-4.2-5.19-3.92-7.34L42.08,160a1,1,0,0,1,1-1h0a1,1,0,0,1,1,1l.06,7.8v.08c0,.17-.57,4.4,2.44,5.19l10.48,2.76a3.06,3.06,0,0,0,3.08-.91,2.89,2.89,0,0,0,.62-3l-.17-.49c-.63-1.78-1.48-4.22-3.16-5.76l-.44-.41.15-.58c1.54-5.84.28-20.69-13.41-29.32a1,1,0,0,1,1.06-1.7c14.21,9,15.86,24.31,14.42,31a16.82,16.82,0,0,1,3.26,6.14l.17.48a4.85,4.85,0,0,1-1,5A5.11,5.11,0,0,1,57.84,177.89Z" style="fill:#fff"/><path d="M103.24,75.11H99.66a1,1,0,0,0-.86.5,1,1,0,0,0,0,1l1.78,3.13a1,1,0,0,0,1.74,0l1.79-3.13a1,1,0,0,0,0-1A1,1,0,0,0,103.24,75.11Z" style="fill:#fff"/><path d="M91.06,73.54H78.55a1,1,0,0,0,0,2H91.06a1,1,0,0,0,0-2Z" style="fill:#fff"/><path d="M91.06,79.8H84.81a1,1,0,0,0,0,2h6.25a1,1,0,0,0,0-2Z" style="fill:#fff"/><path d="M124.35,73.54H111.84a1,1,0,0,0,0,2h12.51a1,1,0,0,0,0-2Z" style="fill:#fff"/><path d="M118.09,79.8h-6.25a1,1,0,0,0,0,2h6.25a1,1,0,0,0,0-2Z" style="fill:#fff"/><path d="M86,63.58a14.79,14.79,0,0,1-1.14-5.46,15.43,15.43,0,0,1,1.9-7.07,19.23,19.23,0,0,0-6.46-1.5,1.53,1.53,0,0,0-1.66,1.67c.15,2.44.85,7,3.88,10A11.65,11.65,0,0,0,86,63.58Z" style="fill:#fff"/><path d="M87.9,51.65a15.12,15.12,0,0,1,1.6,6.47A15,15,0,0,1,88,64.35a21.24,21.24,0,0,0,4.47.77,1.53,1.53,0,0,0,1.66-1.67c-.15-2.44-.85-7-3.87-10A11,11,0,0,0,87.9,51.65Z" style="fill:#fff"/><path d="M113.4,58.12a15.08,15.08,0,0,1,1.6-6.47,11.14,11.14,0,0,0-2.37,1.78c-3,3-3.74,7.58-3.88,10a1.52,1.52,0,0,0,1.66,1.66,20.78,20.78,0,0,0,4.48-.77A15,15,0,0,1,113.4,58.12Z" style="fill:#fff"/><path d="M117,63.58a11.69,11.69,0,0,0,3.49-2.34c3-3,3.73-7.58,3.88-10a1.53,1.53,0,0,0-1.67-1.66,19.29,19.29,0,0,0-6.46,1.5,15.39,15.39,0,0,1,1.9,7.07A14.55,14.55,0,0,1,117,63.58Z" style="fill:#fff"/><path d="M143.64,80.86,132.41,69.62a19.61,19.61,0,1,0-4.25,4.24L139.4,85.1a3,3,0,0,0,4.24-4.24ZM103.21,58.15a13.49,13.49,0,1,1,13.48,13.48A13.49,13.49,0,0,1,103.21,58.15Z" style="fill:#cc5050"/><path d="M119.64,135.85c5.26,6.06,12.41,9.87,20,9.87h.74c14.49-.47,24.39-15.09,26.36-28.59,2.23-15.36-6.64-31.37-22.08-39.84a6.5,6.5,0,1,0-6.25,11.4c10.71,5.87,16.92,16.55,15.46,26.57-1,7.16-6.46,17.22-13.91,17.47h-.31c-4.71,0-9.94-3.55-13-9.37" style="fill:#9da5b4"/><path d="M139.63,146.72c-7.55,0-15.11-3.72-20.75-10.22a1,1,0,0,1,1.52-1.31c5.43,6.26,12.71,9.76,19.94,9.52,13.94-.46,23.49-14.63,25.4-27.74,2.17-15-6.5-30.55-21.58-38.81a5.5,5.5,0,0,0-5.28,9.64c11.07,6.07,17.49,17.16,16,27.59-1.09,7.51-6.87,18.06-14.87,18.33h-.34c-5.27,0-10.72-3.89-13.88-9.9a1,1,0,0,1,.42-1.35,1,1,0,0,1,1.35.42c2.78,5.28,7.65,8.83,12.11,8.83h.28c6.82-.23,12-10,13-16.62,1.4-9.61-4.61-19.87-15-25.54a7.5,7.5,0,1,1,7.21-13.16c15.8,8.67,24.88,25.09,22.59,40.86-2,13.91-12.29,29-27.31,29.45Z" style="fill:#fff"/></svg>