<svg xmlns="http://www.w3.org/2000/svg" width="175" height="200" viewBox="0 0 175 200"><path d="M53.16,134.72a24.27,24.27,0,0,1-15.88-1.09c-9.61-4.36-12.6-14.47-13.88-18.8-4.35-14.7,2-28.67,4.92-34a47.31,47.31,0,0,1,7.75-10.25A60.54,60.54,0,0,0,47.71,53.94a77,77,0,0,0,6.72-22.13,7,7,0,1,0-13.85-2A63.75,63.75,0,0,1,35.09,47.9,47,47,0,0,1,25.8,61.07a61,61,0,0,0-9.75,13C12.28,81,4.13,99.05,10,118.81c1.5,5.09,6.08,20.57,21.51,27.57a36.05,36.05,0,0,0,15,3.18,41.89,41.89,0,0,0,10.91-1.48" style="fill:#fff"/><path d="M46.48,150.56a37,37,0,0,1-15.4-3.27c-15.85-7.19-20.53-23-22.06-28.2C3.07,99,11.34,80.58,15.17,73.61A61.61,61.61,0,0,1,25.06,60.4a46,46,0,0,0,9.12-12.93,62.22,62.22,0,0,0,5.41-17.86A8,8,0,0,1,55.42,32a78.63,78.63,0,0,1-6.8,22.41A61.66,61.66,0,0,1,36.81,71.26a46.42,46.42,0,0,0-7.62,10c-2.86,5.22-9.07,18.9-4.83,33.24,1.24,4.19,4.14,14,13.33,18.17a23.25,23.25,0,0,0,15.22,1,1,1,0,0,1,1.22.73,1,1,0,0,1-.73,1.21,25.22,25.22,0,0,1-16.54-1.15c-10-4.55-13.1-15-14.42-19.42-4.45-15.07,2-29.33,5-34.77a48.07,48.07,0,0,1,7.9-10.45A59.8,59.8,0,0,0,46.81,53.51a76.51,76.51,0,0,0,6.63-21.85,6,6,0,1,0-11.87-1.75A64.44,64.44,0,0,1,36,48.33a47.76,47.76,0,0,1-9.46,13.42,60.2,60.2,0,0,0-9.61,12.82c-3.71,6.76-11.72,24.56-6,44,1.47,5,6,20.14,21,27a35.06,35.06,0,0,0,14.58,3.09,40.57,40.57,0,0,0,10.64-1.44,1,1,0,0,1,.53,1.93A42.86,42.86,0,0,1,46.48,150.56Z" style="fill:#3b3d4d"/><path d="M137.19,17.26a462.48,462.48,0,0,1,2.44,80.24c-2.49,43.38-9.26,52.36-13.42,56.75C105.6,175.93,68.6,169.48,60,168c-11.16-1.95-21.42-3.91-26.44-12-8.06-12.94,1.72-33.35,10.66-47.4A147.88,147.88,0,0,0,62.35,66.69l6.81-25.93s5.18-18.92,15.56-23.5v15s18.91-6.71,38.13,0Z" style="fill:#fff"/><path d="M45.37,164.6A95.06,95.06,0,0,0,60,168c8.6,1.5,45.6,8,66.21-13.73,4.16-4.39,10.93-13.37,13.42-56.75,1.59-27.79.79-45.58.32-45.58s3.75,27.08-7.11,57.33c-4.63,12.88-12.1,33.69-33.26,46.68C77.18,169.68,53.31,166.15,45.37,164.6Z" style="fill:#f2f2f9;opacity:0.62"/><path d="M82.09,171A130.09,130.09,0,0,1,59.83,169c-10.69-1.86-21.74-3.79-27.12-12.43-8.24-13.24,1.25-33.66,10.66-48.46a146.65,146.65,0,0,0,18-41.63L68.19,40.5c.22-.8,5.44-19.44,16.12-24.15l1.4-.62V30.84c4.64-1.38,20.45-5.28,36.86.22l15.37-16,.24,2.11a465.37,465.37,0,0,1,2.45,80.41c-2.62,45.72-10.1,53.59-13.7,57.38C119.44,162.82,105.91,171,82.09,171ZM83.71,18.91C74.82,24.26,70.17,40.85,70.12,41L63.32,67a148.81,148.81,0,0,1-18.26,42.19c-16.5,25.94-14.9,39.51-10.65,46.33,4.9,7.88,15.51,9.73,25.77,11.52,37.25,6.5,56.07-3.72,65.3-13.43,5.23-5.5,10.88-16.47,13.15-56.12a464.05,464.05,0,0,0-2.19-77.95L123.13,33.37l-.61-.21c-18.65-6.51-37.29-.07-37.47,0l-1.33.47Z" style="fill:#3b3d4d"/><path d="M78.8,131.26l-.23,41.14a6,6,0,0,0,2.87,5.14l6.79,4.16A7,7,0,0,0,98,179.22a7.16,7.16,0,0,0-2.64-9.59L92.6,168l.22-40.56" style="fill:#fff"/><path d="M91.88,183.74a8,8,0,0,1-4.18-1.18l-6.78-4.16a7.05,7.05,0,0,1-3.35-6l.23-41.13a1,1,0,0,1,1-1h0a1,1,0,0,1,1,1l-.23,41.13A5,5,0,0,0,82,176.69l6.79,4.16a6,6,0,0,0,3.13.89,6.06,6.06,0,0,0,5.21-3,6.19,6.19,0,0,0-2.3-8.25l-3.19-2,.22-41.12a1,1,0,0,1,1-1h0a1,1,0,0,1,1,1l-.22,40,2.24,1.37a8.2,8.2,0,0,1,3,10.95A8,8,0,0,1,91.88,183.74Z" style="fill:#3b3d4d"/><path d="M43.08,160.65l.06,7.73s-.76,5.27,3.18,6.3l10.48,2.77a4,4,0,0,0,4.89-5.2c-.65-1.82-1.56-4.78-3.59-6.64,1.4-5.32.91-21.13-13.85-30.43" style="fill:#fff"/><path d="M57.84,178.58a5.27,5.27,0,0,1-1.3-.17l-10.48-2.76c-3.74-1-4.2-5.18-3.92-7.34l-.06-7.65a1,1,0,0,1,1-1h0a1,1,0,0,1,1,1l.06,7.79v.08c0,.18-.57,4.4,2.44,5.2l10.48,2.76a3.08,3.08,0,0,0,3.08-.92,2.88,2.88,0,0,0,.62-3l-.17-.49c-.63-1.78-1.48-4.22-3.16-5.76l-.44-.41.15-.58c1.54-5.84.28-20.69-13.41-29.32a1,1,0,0,1,1.06-1.69c14.21,8.95,15.86,24.3,14.42,30.95a16.77,16.77,0,0,1,3.26,6.15l.17.48a4.86,4.86,0,0,1-1,5A5.14,5.14,0,0,1,57.84,178.58Z" style="fill:#3b3d4d"/><polygon points="99.66 76.8 103.24 76.8 101.45 79.93 99.66 76.8" style="fill:#3b3d4d"/><path d="M101.45,80.93h0a1,1,0,0,1-.87-.5L98.8,77.3a1,1,0,0,1,.86-1.5h3.58a1,1,0,0,1,.86.5,1,1,0,0,1,0,1l-1.79,3.13A1,1,0,0,1,101.45,80.93Zm-.06-3.13.06.12.07-.12Z" style="fill:#3b3d4d"/><path d="M91.06,76.24H78.55a1,1,0,0,1,0-2H91.06a1,1,0,0,1,0,2Z" style="fill:#3b3d4d"/><path d="M91.06,82.5H84.81a1,1,0,0,1,0-2h6.25a1,1,0,0,1,0,2Z" style="fill:#3b3d4d"/><path d="M124.35,76.24H111.84a1,1,0,0,1,0-2h12.51a1,1,0,0,1,0,2Z" style="fill:#3b3d4d"/><path d="M118.09,82.5h-6.25a1,1,0,0,1,0-2h6.25a1,1,0,0,1,0,2Z" style="fill:#3b3d4d"/><path d="M84.81,58.81a15.38,15.38,0,0,1,1.9-7.06,19,19,0,0,0-6.46-1.5,1.52,1.52,0,0,0-1.66,1.66c.15,2.44.85,7,3.88,10A11.46,11.46,0,0,0,86,64.27,14.75,14.75,0,0,1,84.81,58.81Z" style="fill:#3b3d4d"/><path d="M90.28,54.12a11,11,0,0,0-2.38-1.78A13.87,13.87,0,0,1,88,65a20.61,20.61,0,0,0,4.47.77,1.52,1.52,0,0,0,1.66-1.66C94,61.7,93.3,57.15,90.28,54.12Z" style="fill:#3b3d4d"/><path d="M113.4,58.81a15.12,15.12,0,0,1,1.6-6.47,11.14,11.14,0,0,0-2.37,1.78c-3,3-3.74,7.59-3.88,10a1.52,1.52,0,0,0,1.66,1.66,20.78,20.78,0,0,0,4.48-.77A15,15,0,0,1,113.4,58.81Z" style="fill:#3b3d4d"/><path d="M122.65,50.24a19.29,19.29,0,0,0-6.46,1.5,15.47,15.47,0,0,1,1.9,7.07A14.61,14.61,0,0,1,117,64.28a11.73,11.73,0,0,0,3.49-2.35c3-3,3.73-7.58,3.88-10A1.53,1.53,0,0,0,122.65,50.24Z" style="fill:#3b3d4d"/><path d="M143.64,81.55,132.41,70.32a19.61,19.61,0,1,0-4.25,4.24L139.4,85.79a3,3,0,0,0,4.24-4.24ZM103.21,58.84a13.49,13.49,0,1,1,13.48,13.49A13.5,13.5,0,0,1,103.21,58.84Z" style="fill:#e9564f"/><path d="M119.64,136.54c5.26,6.06,12.41,9.88,20,9.88l.74,0c14.49-.47,24.39-15.08,26.36-28.59C169,102.45,160.09,86.44,144.65,78a6.5,6.5,0,1,0-6.25,11.4c10.71,5.87,16.92,16.55,15.46,26.57-1,7.17-6.46,17.23-13.91,17.47h-.31c-4.71,0-9.94-3.56-13-9.37" style="fill:#fff"/><path d="M139.63,147.42c-7.55,0-15.11-3.73-20.75-10.22a1,1,0,0,1,1.52-1.31c5.43,6.26,12.71,9.75,19.94,9.51,13.94-.45,23.49-14.63,25.4-27.73,2.17-15-6.5-30.55-21.58-38.82a5.5,5.5,0,0,0-5.28,9.65c11.07,6.07,17.49,17.15,16,27.58-1.09,7.52-6.87,18.07-14.87,18.33h-.34c-5.27,0-10.72-3.89-13.88-9.91a1,1,0,0,1,.42-1.35,1,1,0,0,1,1.35.42c2.78,5.29,7.65,8.84,12.11,8.84h.28c6.82-.22,12-10,13-16.61,1.4-9.61-4.61-19.88-15-25.55a7.5,7.5,0,1,1,7.21-13.15c15.8,8.66,24.88,25.08,22.59,40.85-2,13.91-12.29,29-27.31,29.45Z" style="fill:#3b3d4d"/></svg>