<svg xmlns="http://www.w3.org/2000/svg" width="270" height="200" viewBox="0 0 270 200">
  <path
    d="M224.57,177.86l5.2-.5c1.79-.17,3.17-.7,3.08-1.19l-1.08-6c-.08-.46-1.55-.7-3.27-.55l-5,.45c-.87.08-1.6,0-1.63-.27l-.35-2.68c-.05-.44-1.48-.67-3.2-.52L170,170.78c-1.83.16-3.38.67-3.46,1.14l-3.65,22.86c-.09.59,1.52.9,3.59.68l54.44-5.65c1.92-.2,3.41-.81,3.34-1.36l-1.28-10C223,178.22,223.67,178,224.57,177.86Z"
    fill="var(--tint-input-bg)" />
  <path
    d="M213.72,132.78l4.3-.31c1.48-.11,2.61-.48,2.52-.82l-1.12-4.29c-.09-.32-1.32-.5-2.76-.41l-4.16.29c-.72.05-1.34,0-1.37-.2l-.41-1.92c-.06-.31-1.28-.49-2.71-.4l-40.1,2.68c-1.51.1-2.76.45-2.78.78L164,144c0,.41,1.31.63,3,.5l44.25-3.46c1.57-.13,2.78-.54,2.7-.92l-1.47-7C212.39,133,213,132.83,213.72,132.78Z"
    fill="var(--tint-input-bg)" />
  <path
    d="M249.29,146.28l4.4.13a6.89,6.89,0,0,0,3.65-.71l6.09-5.41c.46-.4-.36-.77-1.82-.81l-4.22-.12c-.73,0-1.13-.21-.89-.41l2.78-2.36c.46-.39-.33-.74-1.76-.78l-39.17-1.17a7.75,7.75,0,0,0-3.64.62l-27.52,18.8c-.72.48,0,.91,1.65,1l44.23,1.26a7.48,7.48,0,0,0,4-.81l10.41-8.83A3.46,3.46,0,0,1,249.29,146.28Z"
    fill="var(--tint-action)" />
  <path
    d="M162.06,174.41l5.1.39a11.33,11.33,0,0,0,5.34-.94l14.43-8c1.08-.6.57-1.19-1.11-1.31l-4.87-.36c-.84-.07-1.08-.36-.54-.65l6.39-3.45c1-.57.56-1.12-1.08-1.25l-44.51-3.25a12.21,12.21,0,0,0-5.08.78L77.05,183.78c-1.57.73-1.34,1.44.52,1.58l51.09,4a12.83,12.83,0,0,0,5.93-1.09l24.77-13.39A5.88,5.88,0,0,1,162.06,174.41Z"
    fill="var(--tint-action)" />
  <path
    d="M50.62,170l-6.08,1.47c-2.12.52-3.12,1.27-2.22,1.67l11.89,5.27c.95.42,3.46.31,5.61-.24l6.11-1.57a5.66,5.66,0,0,1,2.76-.12l5.78,2.48c1,.42,3.47.31,5.56-.24l52.64-13.94c1.79-.47,2.42-1.15,1.43-1.51L93.82,148.49a10.93,10.93,0,0,0-4.78.15L37.09,160.45c-2,.47-3,1.14-2.17,1.5l16.76,7.19C52.13,169.34,51.66,169.7,50.62,170Z"
    fill="var(--tint-input-bg)" />
  <path d="M155.71,120.82l15.86,26.24a8,8,0,1,0,13.69-8.28l-19.93-33" fill="var(--tint-bg)" />
  <path
    d="M183,148.39a8,8,0,0,1-6.85-3.86L158.78,116l-3.07,4.79,15.86,26.24a8,8,0,0,0,11,2.71,8.06,8.06,0,0,0,1.84-1.53A7.82,7.82,0,0,1,183,148.39Z"
    fill="color-mix(in srgb, var(--tint-text) 5%, transparent)" />
  <path
    d="M178.42,151.92a8.93,8.93,0,0,1-7.71-4.34l-15.86-26.24,1.71-1,15.86,26.23a7,7,0,1,0,12-7.24l-19.92-33,1.71-1,19.93,33a9,9,0,0,1-7.7,13.66Z"
    fill="var(--tint-text)" />
  <path
    d="M165.33,105.82l-.09.15A75.73,75.73,0,0,0,169,96.73c7.7-23.61,10.78-41.11,12-51.74,1.11-9.58,2.32-16,5.6-25.07l3.36-9.27a49.51,49.51,0,0,0-19.14,13.11,88.13,88.13,0,0,0-38-3.84s1.33-6.77,6.75-15.45c-12.91,4.2-25.79,20-35.4,39.39S81.7,61.65,62.78,76.59c-16.63,13.15-20.29,40.67-20.93,47.13-8.55-.1-16.2-4-19.55-10.41-3.75-7.16-1.32-16.24,2.52-21.66,3.06-4.31,6.65-5.7,12.08-7.81,5-1.94,11.21-4.35,17.81-9.77,8.9-7.3,15.4-17.45,19.33-30.19a7,7,0,1,0-13.37-4.13c-3.11,10.07-8.1,18-14.84,23.5-4.87,4-9.3,5.72-14,7.54-6.36,2.47-12.94,5-18.43,12.76-6.44,9.08-10,23.81-3.5,36.26,5.87,11.2,18.3,17.94,32.17,17.94.73,0,1.47,0,2.21-.07v0c3.23,5.12,10,10.24,24.18,11.9a7.92,7.92,0,0,0,4.29,3.72c6.1,2,16.77,3.87,18.91,0,.72-1.29.29-2.73-.59-4.08a66.29,66.29,0,0,0,25.17-4.34"
    fill="var(--tint-bg)" />
  <path d="M132.13,139.17a74.2,74.2,0,0,0,23.58-18.34" fill="var(--tint-bg)" />
  <path
    d="M179.88,52.8c-2.7-.92-9.77,60.43-50,79.7-14.91,7.15-35.33,9-44.35,9.78a182,182,0,0,1-37.83-.59A48,48,0,0,0,60.32,148c5.82,1.91,11.79,2.59,23.49,1.8a196.46,196.46,0,0,0,32.43-5l15.89-5.68a74.2,74.2,0,0,0,23.58-18.34l9.62-15-.09.15A75.73,75.73,0,0,0,169,96.73C170.36,92.41,182.09,53.56,179.88,52.8Z"
    fill="color-mix(in srgb, var(--tint-text) 5%, transparent)" />
  <path
    d="M91.28,150.51l0-2A97.94,97.94,0,0,0,116,144.44l.57,1.92A100.43,100.43,0,0,1,91.28,150.51Z"
    fill="var(--tint-text)" />
  <path
    d="M68.35,150.55C56.61,149.16,48.41,145.29,44,139A18.87,18.87,0,0,1,40.74,125a101.86,101.86,0,0,1,3.46-18.78c2.68-9.5,8-22.48,18-30.37A112.94,112.94,0,0,1,81,64c9.15-4.84,16.39-8.67,22.3-20.61,10.57-21.35,23.69-35.89,36-39.89l2.62-.86L140.42,5a54.24,54.24,0,0,0-6.27,13.75,90.85,90.85,0,0,1,36.33,3.86A50,50,0,0,1,189.61,9.69l1.94-.63-4.05,11.2C184.17,29.47,183,35.85,182,45.1c-1.22,10.58-4.31,28.18-12,51.94-6.26,19.21-18.82,33.69-37.32,43l-.9-1.79c18-9.09,30.23-23.17,36.32-41.86,7.69-23.6,10.75-41.06,12-51.55,1.08-9.4,2.26-15.9,5.65-25.29l2.6-7.19a50.46,50.46,0,0,0-16.7,12.05l-.44.48-.62-.21A88.1,88.1,0,0,0,133,20.9l-1.41.22.27-1.4a49.07,49.07,0,0,1,5.39-13.27c-11,5-22.6,18.53-32.17,37.85C98.86,56.82,91.38,60.78,81.9,65.78a112.12,112.12,0,0,0-18.5,11.6c-18.35,14.5-20.65,47.45-20.67,47.79l0,.15a17.25,17.25,0,0,0,2.93,12.58c4.1,5.76,11.82,9.35,22.95,10.66Z"
    fill="var(--tint-text)" />
  <path
    d="M42.07,138.75c-14.42,0-27.08-7.08-33-18.48C2.3,107.45,6,92.3,12.59,83,18.25,75,25,72.38,31.47,69.86c4.62-1.79,9-3.48,13.73-7.38,6.58-5.4,11.46-13.15,14.51-23A8,8,0,0,1,75,44.18C71,57.1,64.39,67.42,55.35,74.85c-6.73,5.52-13,8-18.09,9.93-5.45,2.11-8.74,3.39-11.62,7.45-3.67,5.18-6,13.83-2.45,20.62,3.14,6,10.29,9.77,18.67,9.87l0,2c-9.12-.11-16.94-4.3-20.42-10.94-4-7.53-1.43-17,2.59-22.71,3.23-4.55,7.13-6.06,12.52-8.16C41.47,81,47.6,78.62,54.08,73.3c8.74-7.17,15.13-17.17,19-29.71A6,6,0,0,0,61.62,40C58.45,50.3,53.35,58.37,46.47,64c-5,4.1-9.51,5.85-14.28,7.71-6.22,2.41-12.65,4.91-18,12.4C8,93,4.46,107.28,10.79,119.35c5.92,11.29,18.91,18.09,33.44,17.33l.1,2C43.58,138.72,42.82,138.75,42.07,138.75Z"
    fill="var(--tint-text)" />
  <path d="M66.24,141.68s.4,9.56,6.51,11.59,16.77,3.87,18.91,0-5.9-9-5.9-9-2-25.74-20.74-41"
    fill="var(--tint-bg)" />
  <path
    d="M85.22,156.56a44.41,44.41,0,0,1-12.79-2.34c-6.68-2.22-7.17-12.08-7.19-12.5a1,1,0,0,1,1-1,1,1,0,0,1,1,1c0,.08.45,8.89,5.82,10.68,7.33,2.45,16.2,3.22,17.73.47,1.37-2.48-3.69-6.5-5.57-7.72l-.41-.26,0-.5c0-.25-2.23-25.5-20.38-40.3a1,1,0,0,1-.15-1.4,1,1,0,0,1,1.41-.15C83,116.64,86.3,140,86.71,143.66c1.84,1.26,8.12,6,5.83,10.1C91.38,155.83,88.54,156.56,85.22,156.56Z"
    fill="var(--tint-text)" />
  <path d="M115.44,105.36l1,47.69a8,8,0,0,0,8,7.82h.19a8,8,0,0,0,7.82-8.18l-1.12-53.89"
    fill="var(--tint-bg)" />
  <path
    d="M129.12,158.33h-.19a8,8,0,0,1-8-7.82l-1-48-4.54,1.88,1,48.63a8,8,0,0,0,8,7.82h.19a7.94,7.94,0,0,0,5.77-2.66A8.4,8.4,0,0,1,129.12,158.33Z"
    fill="color-mix(in srgb, var(--tint-text) 5%, transparent)" />
  <polygon points="147.37 70.02 150.95 70.02 149.16 73.14 147.37 70.02" fill="var(--tint-text)" />
  <path
    d="M149.16,74.14a1,1,0,0,1-.87-.5l-1.79-3.13a1,1,0,0,1,0-1,1,1,0,0,1,.86-.5H151a1,1,0,0,1,.86,1.5L150,73.64A1,1,0,0,1,149.16,74.14ZM149.09,71l.07.12.06-.12Z"
    fill="var(--tint-text)" />
  <path d="M139.77,69.45H127.26a1,1,0,0,1,0-2h12.51a1,1,0,0,1,0,2Z" fill="var(--tint-text)" />
  <path d="M139.77,75.71h-6.26a1,1,0,0,1,0-2h6.26a1,1,0,0,1,0,2Z" fill="var(--tint-text)" />
  <path d="M171.06,69.45H158.54a1,1,0,0,1,0-2h12.52a1,1,0,0,1,0,2Z" fill="var(--tint-text)" />
  <path d="M164.8,75.71h-6.26a1,1,0,0,1,0-2h6.26a1,1,0,0,1,0,2Z" fill="var(--tint-text)" />
  <path
    d="M139,47.34a8.74,8.74,0,0,0-.93-.8A14.64,14.64,0,0,1,139.21,52a15.08,15.08,0,0,1-1.6,6.47,20.21,20.21,0,0,0,3.59.53,1.52,1.52,0,0,0,1.66-1.66C142.71,54.92,142,50.36,139,47.34Z"
    fill="var(--tint-text)" />
  <path
    d="M134.51,52a15.2,15.2,0,0,1,1.71-6.68A18.71,18.71,0,0,0,129,43.46a1.53,1.53,0,0,0-1.67,1.66c.15,2.45.85,7,3.88,10a12.39,12.39,0,0,0,4.7,2.82A14.84,14.84,0,0,1,134.51,52Z"
    fill="var(--tint-text)" />
  <path
    d="M160.11,52a15.12,15.12,0,0,1,1.6-6.47,11,11,0,0,0-2.38,1.78c-3,3-3.73,7.59-3.88,10A1.53,1.53,0,0,0,157.12,59a20.7,20.7,0,0,0,4.47-.78A15,15,0,0,1,160.11,52Z"
    fill="var(--tint-text)" />
  <path
    d="M169.36,43.45A19.33,19.33,0,0,0,162.9,45,15.38,15.38,0,0,1,164.8,52a14.81,14.81,0,0,1-1.14,5.47,11.82,11.82,0,0,0,3.49-2.34c3-3,3.73-7.59,3.88-10A1.54,1.54,0,0,0,169.36,43.45Z"
    fill="var(--tint-text)" />
  <path
    d="M194.4,76.18a5,5,0,0,1-1-.1,5.49,5.49,0,0,1-2-10,5.38,5.38,0,0,1,4.11-.85h0a5.46,5.46,0,0,1,2,9.91A5.44,5.44,0,0,1,194.4,76.18Zm0-9a3.43,3.43,0,0,0-1.94.62,3.46,3.46,0,1,0,3.87,5.74,3.39,3.39,0,0,0,1.5-2.23,3.27,3.27,0,0,0-.57-2.58,3.3,3.3,0,0,0-2.18-1.48A3.21,3.21,0,0,0,194.41,67.17Zm4.93-2-7.5-1.44,1.89-9.86,3.21.61a9.49,9.49,0,0,0,4.82,0,2.44,2.44,0,0,0,1.7-2,2.21,2.21,0,0,0-.85-2.25,9.85,9.85,0,0,0-4.44-1.75c-1-.18-2.16-.35-3.47-.47l-1-.1,1-8.13.93,0a34.42,34.42,0,0,1,4.89.62c4.23.81,7.41,2.39,9.48,4.71a9.5,9.5,0,0,1,2.26,8.52,9.86,9.86,0,0,1-4.26,6.7,14.12,14.12,0,0,1-7.87,2Zm-5.16-3,3.7.71.66-2.5.8,0a12.71,12.71,0,0,0,7.5-1.68,7.86,7.86,0,0,0,3.4-5.4,7.52,7.52,0,0,0-1.8-6.82c-1.76-2-4.57-3.35-8.36-4.08a36.3,36.3,0,0,0-3.67-.52l-.5,4.24c1,.12,1.85.25,2.64.4a11.61,11.61,0,0,1,5.35,2.18,4.18,4.18,0,0,1,1.53,4.15,4.45,4.45,0,0,1-3,3.51,11.23,11.23,0,0,1-5.87.1l-1.25-.24Z"
    fill="var(--tint-text)" />
  <path
    d="M124.4,161.87a9.06,9.06,0,0,1-9-8.8l-1-47.69a1,1,0,0,1,1-1,1,1,0,0,1,1,1l1,47.69a7,7,0,0,0,7,6.84h.17a7,7,0,0,0,6.84-7.15l-1.12-53.9a1,1,0,0,1,1-1h0a1,1,0,0,1,1,1l1.12,53.89a9,9,0,0,1-8.8,9.2Z"
    fill="var(--tint-text)" />
</svg>
