<svg xmlns="http://www.w3.org/2000/svg" width="270" height="200" viewBox="0 0 270 200"><path d="M224.57,179.15l5.2-.5c1.79-.17,3.17-.7,3.08-1.19l-1.08-6c-.08-.46-1.55-.7-3.27-.54l-5,.45c-.87.07-1.6-.05-1.63-.27l-.35-2.68c-.05-.45-1.48-.68-3.2-.53L170,172.07c-1.83.16-3.38.67-3.46,1.15l-3.65,22.85c-.09.59,1.52.9,3.59.69l54.44-5.66c1.92-.2,3.41-.81,3.34-1.36l-1.28-10C223,179.51,223.67,179.24,224.57,179.15Z" style="fill:#60606d"/><path d="M213.72,134.07l4.3-.31c1.48-.11,2.61-.48,2.52-.82l-1.12-4.29c-.09-.32-1.32-.5-2.76-.4l-4.16.28c-.72.05-1.34,0-1.37-.2l-.41-1.92c-.06-.31-1.28-.49-2.71-.4l-40.1,2.68c-1.51.1-2.76.45-2.78.78L164,145.33c0,.4,1.31.62,3,.49l44.25-3.46c1.57-.12,2.78-.53,2.7-.91l-1.47-7C212.39,134.31,213,134.13,213.72,134.07Z" style="fill:#60606d"/><path d="M249.29,147.57l4.4.13a6.89,6.89,0,0,0,3.65-.71l6.09-5.4c.46-.41-.36-.77-1.82-.82l-4.22-.12c-.73,0-1.13-.2-.89-.41l2.78-2.36c.46-.39-.33-.74-1.76-.78l-39.17-1.17a7.75,7.75,0,0,0-3.64.62l-27.52,18.8c-.72.48,0,.92,1.65,1l44.23,1.26a7.59,7.59,0,0,0,4-.8l10.41-8.84A3.46,3.46,0,0,1,249.29,147.57Z" style="fill:#c95d5d"/><path d="M162.06,175.71l5.1.38a11.21,11.21,0,0,0,5.34-.94l14.43-8c1.08-.6.57-1.19-1.11-1.31l-4.87-.36c-.84-.06-1.08-.36-.54-.65l6.39-3.45c1-.57.56-1.12-1.08-1.24l-44.51-3.26a12.21,12.21,0,0,0-5.08.78L77.05,185.07c-1.57.73-1.34,1.44.52,1.59l51.09,4a12.58,12.58,0,0,0,5.93-1.09l24.77-13.39A5.75,5.75,0,0,1,162.06,175.71Z" style="fill:#c95d5d"/><path d="M50.62,171.25l-6.08,1.48c-2.12.51-3.12,1.26-2.22,1.66l11.89,5.27c.95.42,3.46.31,5.61-.24l6.11-1.57a5.66,5.66,0,0,1,2.76-.12l5.78,2.48c1,.42,3.47.32,5.56-.24L132.67,166c1.79-.47,2.42-1.15,1.43-1.51L93.82,149.78a10.93,10.93,0,0,0-4.78.15L37.09,161.74c-2,.47-3,1.14-2.17,1.51l16.76,7.19C52.13,170.63,51.66,171,50.62,171.25Z" style="fill:#60606d"/><path d="M155.71,122.11l15.86,26.24a8,8,0,1,0,13.69-8.28l-19.93-33" style="fill:#9da5b4"/><path d="M183,149.68a8,8,0,0,1-6.85-3.86l-17.32-28.5-3.07,4.79,15.86,26.24a8,8,0,0,0,11,2.71,8.29,8.29,0,0,0,1.84-1.52A8.78,8.78,0,0,1,183,149.68Z" style="fill:#8e95a0"/><path d="M178.42,153.21a8.93,8.93,0,0,1-7.71-4.34l-15.86-26.24,1.71-1,15.86,26.23a7,7,0,0,0,12-7.24l-19.92-33,1.71-1,19.93,33a9,9,0,0,1-7.7,13.65Z" style="fill:#fff"/><path d="M165.33,107.11l0,0a.61.61,0,0,0,0,.12Z" style="fill:#fff"/><path d="M170.78,25.06a88,88,0,0,0-38-3.85s1.33-6.77,6.75-15.45c-12.91,4.2-25.79,20-35.4,39.39S81.7,62.94,62.78,77.89C46.15,91,42.49,118.56,41.85,125c-8.55-.1-16.2-4-19.55-10.41-3.75-7.15-1.32-16.24,2.52-21.66,3.06-4.3,6.65-5.7,12.08-7.8,5-1.94,11.21-4.36,17.81-9.78,8.9-7.29,15.4-17.45,19.33-30.19A7,7,0,1,0,60.67,41c-3.11,10.07-8.1,18-14.84,23.5-4.87,4-9.3,5.72-14,7.54-6.36,2.47-12.94,5-18.43,12.76C7,93.92,3.38,108.66,9.9,121.1,15.77,132.3,28.2,139,42.07,139c.73,0,1.47,0,2.21-.07v0c3.23,5.13,10,10.24,24.18,11.91a7.94,7.94,0,0,0,4.29,3.71c6.1,2,16.77,3.87,18.91,0,.72-1.29.29-2.73-.59-4.08a66.29,66.29,0,0,0,25.17-4.34l26.62-18.64,22.43-20.35A76.19,76.19,0,0,0,169,98c7.7-23.61,10.78-41.11,12-51.74,1.11-9.58,2.32-16,5.6-25.07l3.36-9.27A49.47,49.47,0,0,0,170.78,25.06Z" style="fill:#9da5b4"/><path d="M132.13,140.47a74.38,74.38,0,0,0,23.58-18.35" style="fill:#fff"/><path d="M179.88,54.1c-2.7-.93-9.77,60.42-50,79.7-14.91,7.14-35.33,9-44.35,9.77A182.15,182.15,0,0,1,47.7,143a48.31,48.31,0,0,0,12.62,6.34c5.82,1.9,11.79,2.59,23.49,1.79a196.46,196.46,0,0,0,32.43-5l15.89-5.67a74.38,74.38,0,0,0,23.58-18.35l9.62-15-.09.16A76.54,76.54,0,0,0,169,98C170.36,93.7,182.09,54.85,179.88,54.1Z" style="fill:#8e95a0"/><path d="M91.28,151.8l0-2A97.94,97.94,0,0,0,116,145.73l.57,1.92A100.43,100.43,0,0,1,91.28,151.8Z" style="fill:#fff"/><path d="M68.35,151.84c-11.74-1.39-19.94-5.26-24.37-11.53a18.87,18.87,0,0,1-3.24-14.06,101.86,101.86,0,0,1,3.46-18.78c2.68-9.5,8-22.48,18-30.37A113.6,113.6,0,0,1,81,65.31c9.15-4.84,16.39-8.66,22.3-20.6,10.57-21.36,23.69-35.9,36-39.9L141.88,4l-1.46,2.33A54.4,54.4,0,0,0,134.15,20a90.85,90.85,0,0,1,36.33,3.86A49.89,49.89,0,0,1,189.61,11l1.94-.64-4.05,11.2C184.17,30.76,183,37.14,182,46.4c-1.22,10.57-4.31,28.17-12,51.93-6.26,19.22-18.82,33.69-37.32,43l-.9-1.79c18-9.08,30.23-23.17,36.32-41.86,7.69-23.6,10.75-41.06,12-51.55,1.08-9.4,2.26-15.89,5.65-25.29l2.6-7.18a50.24,50.24,0,0,0-16.7,12l-.44.49-.62-.22A87.81,87.81,0,0,0,133,22.2l-1.41.21.27-1.39a48.93,48.93,0,0,1,5.39-13.28c-11,5-22.6,18.54-32.17,37.85C98.86,58.11,91.38,62.07,81.9,67.08A111.31,111.31,0,0,0,63.4,78.67c-18.35,14.51-20.65,47.46-20.67,47.79l0,.16a17.23,17.23,0,0,0,2.93,12.57c4.1,5.76,11.82,9.35,22.95,10.66Z" style="fill:#fff"/><path d="M42.07,140C27.65,140,15,133,9,121.57c-6.72-12.82-3-28,3.57-37.31,5.66-8,12.38-10.59,18.88-13.11,4.62-1.79,9-3.48,13.73-7.38,6.58-5.4,11.46-13.15,14.51-23A8,8,0,1,1,75,45.47C71,58.39,64.39,68.71,55.35,76.14c-6.73,5.52-13,8-18.09,9.93-5.45,2.11-8.74,3.39-11.62,7.45-3.67,5.18-6,13.84-2.45,20.62,3.14,6,10.29,9.77,18.67,9.87l0,2c-9.12-.11-16.94-4.3-20.42-10.94-4-7.53-1.43-17,2.59-22.7,3.23-4.56,7.13-6.07,12.52-8.17,4.94-1.91,11.07-4.29,17.55-9.61,8.74-7.17,15.13-17.17,19-29.71a6,6,0,0,0-11.47-3.54c-3.17,10.25-8.27,18.32-15.15,24-5,4.1-9.51,5.85-14.28,7.7-6.22,2.41-12.65,4.91-18,12.4C8,94.25,4.46,108.57,10.79,120.64,16.71,131.93,29.7,138.73,44.23,138l.1,2C43.58,140,42.82,140,42.07,140Z" style="fill:#fff"/><path d="M66.24,143s.4,9.56,6.51,11.59,16.77,3.87,18.91,0-5.9-9-5.9-9-2-25.75-20.74-41" style="fill:#9da5b4"/><path d="M85.22,157.85a44.41,44.41,0,0,1-12.79-2.34c-6.68-2.22-7.17-12.08-7.19-12.5a1,1,0,0,1,1-1,1,1,0,0,1,1,1c0,.09.45,8.9,5.82,10.69,7.33,2.44,16.2,3.21,17.73.46,1.37-2.48-3.69-6.5-5.57-7.71l-.41-.27,0-.5c0-.25-2.23-25.5-20.38-40.29a1,1,0,0,1,1.26-1.56C83,117.93,86.3,141.28,86.71,145c1.84,1.26,8.12,6,5.83,10.1C91.38,157.12,88.54,157.85,85.22,157.85Z" style="fill:#fff"/><path d="M115.44,106.65l1,47.69a8,8,0,0,0,8,7.82h.19a8,8,0,0,0,7.82-8.18l-1.12-53.89" style="fill:#9da5b4"/><path d="M129.12,159.63h-.19a8,8,0,0,1-8-7.82l-1-48-4.54,1.88,1,48.63a8,8,0,0,0,8,7.82h.19a8,8,0,0,0,5.77-2.67A8.4,8.4,0,0,1,129.12,159.63Z" style="fill:#8e95a0"/><path d="M151,70.31h-3.58a1,1,0,0,0-.86.49,1,1,0,0,0,0,1l1.79,3.13a1,1,0,0,0,1.74,0l1.78-3.13a1,1,0,0,0,0-1A1,1,0,0,0,151,70.31Z" style="fill:#fff"/><path d="M139.77,68.74H127.26a1,1,0,0,0,0,2h12.51a1,1,0,0,0,0-2Z" style="fill:#fff"/><path d="M139.77,75h-6.26a1,1,0,0,0,0,2h6.26a1,1,0,0,0,0-2Z" style="fill:#fff"/><path d="M171.06,68.74H158.54a1,1,0,0,0,0,2h12.52a1,1,0,0,0,0-2Z" style="fill:#fff"/><path d="M164.8,75h-6.26a1,1,0,0,0,0,2h6.26a1,1,0,0,0,0-2Z" style="fill:#fff"/><path d="M138.05,47.83a14.65,14.65,0,0,1,1.16,5.49,15.12,15.12,0,0,1-1.6,6.47,22.25,22.25,0,0,0,3.59.53,1.53,1.53,0,0,0,1.66-1.67c-.15-2.44-.85-7-3.88-10A8.74,8.74,0,0,0,138.05,47.83Z" style="fill:#fff"/><path d="M135.87,59.26a14.83,14.83,0,0,1-1.36-5.94,15.12,15.12,0,0,1,1.71-6.68A18.57,18.57,0,0,0,129,44.75a1.53,1.53,0,0,0-1.67,1.67c.15,2.44.85,7,3.88,10A12.39,12.39,0,0,0,135.87,59.26Z" style="fill:#fff"/><path d="M160.11,53.32a15.13,15.13,0,0,1,1.6-6.48,11.33,11.33,0,0,0-2.38,1.79c-3,3-3.73,7.58-3.88,10a1.53,1.53,0,0,0,1.67,1.67,20.61,20.61,0,0,0,4.47-.77A15,15,0,0,1,160.11,53.32Z" style="fill:#fff"/><path d="M163.66,58.78a11.82,11.82,0,0,0,3.49-2.34c3-3,3.73-7.58,3.88-10a1.53,1.53,0,0,0-1.67-1.66,19,19,0,0,0-6.46,1.5,15.39,15.39,0,0,1,1.9,7.07A14.79,14.79,0,0,1,163.66,58.78Z" style="fill:#fff"/><path d="M194.4,77.47a5,5,0,0,1-1-.1,5.48,5.48,0,0,1-2-10,5.39,5.39,0,0,1,4.11-.86h0a5.52,5.52,0,0,1-1.07,10.91Zm0-9a3.51,3.51,0,0,0-1.94.62,3.53,3.53,0,0,0,1.3,6.33,3.24,3.24,0,0,0,2.57-.59,3.39,3.39,0,0,0,1.5-2.23,3.27,3.27,0,0,0-.57-2.58,3.33,3.33,0,0,0-2.18-1.48A3.21,3.21,0,0,0,194.41,68.46Zm4.93-2L191.84,65l1.89-9.86,3.21.62a9.59,9.59,0,0,0,4.82,0,2.44,2.44,0,0,0,1.7-2,2.21,2.21,0,0,0-.85-2.25,9.86,9.86,0,0,0-4.44-1.74c-1-.19-2.16-.35-3.47-.48l-1-.1,1-8.13.93,0a34.42,34.42,0,0,1,4.89.62c4.23.81,7.41,2.39,9.48,4.71a9.51,9.51,0,0,1,2.26,8.53,9.84,9.84,0,0,1-4.26,6.69,14.12,14.12,0,0,1-7.87,2Zm-5.16-3,3.7.71.66-2.5.8,0a12.78,12.78,0,0,0,7.5-1.69,7.83,7.83,0,0,0,3.4-5.4,7.52,7.52,0,0,0-1.8-6.82c-1.76-2-4.57-3.35-8.36-4.08a36.3,36.3,0,0,0-3.67-.52l-.5,4.25q1.46.16,2.64.39a11.51,11.51,0,0,1,5.35,2.19,4.17,4.17,0,0,1,1.53,4.15,4.45,4.45,0,0,1-3,3.5,11.23,11.23,0,0,1-5.87.1l-1.25-.24Z" style="fill:#fff"/><path d="M124.4,163.16a9.06,9.06,0,0,1-9-8.8l-1-47.69a1,1,0,0,1,1-1,1,1,0,0,1,1,1l1,47.69a7,7,0,0,0,7,6.84h.17a7,7,0,0,0,6.84-7.16l-1.12-53.89a1,1,0,0,1,1-1h0a1,1,0,0,1,1,1L133.41,154a9,9,0,0,1-8.8,9.21Z" style="fill:#fff"/></svg>