<svg width="16" height="16" viewBox="0 0 16 16" xmlns="http://www.w3.org/2000/svg">
<path d="M6.65448 8.62413C6.65448 5.84283 7.77808 3.43923 8.375 2.34044C6.19801 1.379 3.91568 1.10431 2.47606 1.0013C1.63335 0.966959 0.966212 1.61936 1.00133 2.44345C1.14178 4.60669 1.77381 8.69281 4.54771 11.4054C5.49576 12.3325 6.58425 12.9849 7.74297 13.5C7.18117 12.2295 6.65448 10.5127 6.65448 8.62413Z" fill="currentColor" />
<path d="M11.6031 4.36397C10.9586 3.69733 10.2462 3.17104 9.5 2.75C10.1106 4.01311 10.8907 6.18847 10.8907 8.64452C10.8907 10.9602 10.1784 12.9952 9.60176 14.2934C11.0943 14.7496 12.5189 14.925 13.5365 14.9952C14.4185 15.0653 15.0629 14.3636 14.9951 13.4864C14.8933 11.2409 14.2489 7.10071 11.6031 4.36397Z" fill="currentColor" />
</svg>
