<svg width="32" height="32" viewBox="0 0 32 32" fill="none" xmlns="http://www.w3.org/2000/svg">
<path d="M24.75 6.45003C26.3 5.80003 27.9 5.55003 28.9 5.50003C29.55 5.45003 30 5.95003 29.95 6.55003C29.85 8.10003 29.4 11 27.45 12.95C26.75 13.6 26 14.1 25.2 14.45C25.6 13.55 25.95 12.3 25.95 10.95C25.95 8.95003 25.2 7.25003 24.75 6.45003Z" fill="currentColor"/>
<path d="M6 11C6 8.99999 6.8 7.29999 7.2 6.49999C5.7 5.79999 4.1 5.59999 3.05 5.54999C2.45 5.49999 2 5.94999 2 6.59999C2.1 8.14999 2.55 11.05 4.5 13C5.15 13.65 5.95 14.15 6.75 14.5C6.35 13.6 6 12.35 6 11Z" fill="currentColor"/>
<path d="M2 20.5C1.45 20.5 1 20.95 1 21.5C1 22.05 1.45 22.5 2 22.5H10C10.55 22.5 11 22.05 11 21.5C11 20.95 10.55 20.5 10 20.5H2Z" fill="currentColor"/>
<path d="M17.1504 20.5H14.8504C14.1504 20.5 13.5004 20.9 13.1004 21.5C12.7504 22.1 12.7504 22.9 13.1004 23.5L14.2504 25.5C14.6004 26.1 15.2504 26.5 16.0004 26.5C16.7504 26.5 17.4004 26.1 17.7504 25.5L18.9004 23.5C19.2504 22.9 19.2504 22.1 18.9004 21.5C18.5004 20.85 17.8504 20.5 17.1504 20.5Z" fill="currentColor"/>
<path d="M5 25.5C5 24.95 5.45 24.5 6 24.5H10C10.55 24.5 11 24.95 11 25.5C11 26.05 10.55 26.5 10 26.5H6C5.45 26.5 5 26.05 5 25.5Z" fill="currentColor"/>
<path d="M30 20.5H22C21.45 20.5 21 20.95 21 21.5C21 22.05 21.45 22.5 22 22.5H30C30.55 22.5 31 22.05 31 21.5C31 20.95 30.55 20.5 30 20.5Z" fill="currentColor"/>
<path d="M22 24.5H26C26.55 24.5 27 24.95 27 25.5C27 26.05 26.55 26.5 26 26.5H22C21.45 26.5 21 26.05 21 25.5C21 24.95 21.45 24.5 22 24.5Z" fill="currentColor"/>
<path d="M8 6.84991C8.5 7.14991 9.05 7.54991 9.5 7.99991C11.45 9.94991 11.9 12.8499 11.95 14.4499C12 15.0499 11.55 15.5499 10.9 15.4999C10.15 15.4499 9.15 15.2999 8.05 14.9999C8.5 14.0499 9 12.6499 9 10.9999C9 9.24991 8.45 7.74991 8 6.84991Z" fill="currentColor"/>
<path d="M22.9995 10.9999C22.9995 9.29991 23.5995 7.74991 23.9995 6.84991C23.4495 7.14991 22.9495 7.54991 22.4995 7.99991C20.5495 9.94991 20.0995 12.8499 19.9995 14.3999C19.9495 15.0499 20.4495 15.4999 21.0495 15.4499C21.7995 15.3999 22.7995 15.2999 23.8995 14.9499C23.4995 14.0499 22.9995 12.5999 22.9995 10.9999Z" fill="currentColor"/>
</svg>
