<svg width="32" height="32" viewBox="0 0 32 32" fill="none" xmlns="http://www.w3.org/2000/svg">
<path d="M17.1501 20.5H14.8501C14.1501 20.5 13.5001 20.9 13.1001 21.5C12.7501 22.1 12.7501 22.9 13.1001 23.5L14.2501 25.5C14.6001 26.1 15.2501 26.5 16.0001 26.5C16.7501 26.5 17.4001 26.1 17.7501 25.5L18.9001 23.5C19.2501 22.9 19.2501 22.1 18.9001 21.5C18.5001 20.85 17.8501 20.5 17.1501 20.5Z" fill="context-fill"/>
<path d="M10 20.5H2C1.45 20.5 1 20.95 1 21.5C1 22.05 1.45 22.5 2 22.5H10C10.55 22.5 11 22.05 11 21.5C11 20.95 10.55 20.5 10 20.5Z" fill="context-fill"/>
<path d="M10 24.5H6C5.45 24.5 5 24.95 5 25.5C5 26.05 5.45 26.5 6 26.5H10C10.55 26.5 11 26.05 11 25.5C11 24.95 10.55 24.5 10 24.5Z" fill="context-fill"/>
<path d="M30 20.5H22C21.45 20.5 21 20.95 21 21.5C21 22.05 21.45 22.5 22 22.5H30C30.55 22.5 31 22.05 31 21.5C31 20.95 30.55 20.5 30 20.5Z" fill="context-fill"/>
<path d="M26 24.5H22C21.45 24.5 21 24.95 21 25.5C21 26.05 21.45 26.5 22 26.5H26C26.55 26.5 27 26.05 27 25.5C27 24.95 26.55 24.5 26 24.5Z" fill="context-fill"/>
<path d="M6 11C6 9.00002 6.8 7.30002 7.2 6.50002C5.7 5.80002 4.1 5.60002 3.05 5.55002C2.45 5.50002 2 5.95002 2 6.60002C2.1 8.15002 2.55 11.05 4.5 13C5.15 13.65 5.95 14.15 6.75 14.5C6.35 13.6 6 12.35 6 11Z" fill="context-fill"/>
<path d="M9.5 7.99995C9.05 7.54995 8.5 7.14995 8 6.84995C8.45 7.74995 9 9.24995 9 10.9999C9 12.6499 8.5 14.0499 8.05 14.9999C9.15 15.2999 10.15 15.4499 10.9 15.4999C11.55 15.5499 12 15.0499 11.95 14.4499C11.9 12.8499 11.45 9.94995 9.5 7.99995Z" fill="context-fill"/>
<path d="M23 10.9999C23 9.29995 23.6 7.74995 24 6.84995C23.45 7.14995 22.95 7.54995 22.5 7.99995C20.55 9.94995 20.1 12.8499 20 14.3999C19.95 15.0499 20.45 15.4999 21.05 15.4499C21.8 15.3999 22.8 15.2999 23.9 14.9499C23.5 14.0499 23 12.5999 23 10.9999Z" fill="context-fill"/>
<path d="M28.9 5.50003C27.9 5.55003 26.3 5.80003 24.75 6.45003C25.2 7.25003 25.95 8.95003 25.95 10.95C25.95 12.3 25.6 13.55 25.2 14.45C26 14.1 26.75 13.6 27.45 12.95C29.4 11 29.85 8.10003 29.95 6.55003C30 5.95003 29.55 5.45003 28.9 5.50003Z" fill="context-fill"/>
</svg>
