<svg xmlns="http://www.w3.org/2000/svg" width="24" height="24" viewBox="0 0 24 24">
  <path d="M24,24H0V0H24Z" style="fill: none"/>
  <g>
    <path d="M18.293,19.707a1,1,0,0,0,1.414-1.414l-14-14A1,1,0,0,0,4.293,5.707Z"/>
    <path d="M13,8.142v2.03l2.852,2.852A3.933,3.933,0,0,0,16,12,4,4,0,0,0,13,8.142Z"/>
    <path d="M13,18.92a6.949,6.949,0,0,0,2.322-.77l-1.5-1.5A4.979,4.979,0,0,1,13,16.9Z"/>
    <path d="M18.15,15.322A6.928,6.928,0,0,0,19,12a7.006,7.006,0,0,0-6-6.92V7.1a4.977,4.977,0,0,1,3.648,6.719Z"/>
    <path d="M10.349,5.241,9.121,6.293,12,9.172V6a1,1,0,0,0-1.651-.759Z"/>
    <path d="M5,16H7.13l3.219,2.759A1,1,0,0,0,12,18V14.828l-2-2v3L8.151,14.241A1,1,0,0,0,7.5,14H6V10H7.172l-2-2H5A1,1,0,0,0,4,9v6A1,1,0,0,0,5,16Z"/>
  </g>
</svg>
