<svg xmlns="http://www.w3.org/2000/svg" width="24" height="24" viewBox="0 0 24 24">
  <path d="M24,24H0V0H24Z" style="fill: none"/>
  <g>
    <path d="M10.349,5.241,7.13,8H5A1,1,0,0,0,4,9v6a1,1,0,0,0,1,1H7.13l3.219,2.759A1,1,0,0,0,12,18V6a1,1,0,0,0-1.651-.759ZM10,15.826,8.151,14.241A1,1,0,0,0,7.5,14H6V10H7.5a1,1,0,0,0,.651-.241L10,8.174Z"/>
    <path d="M13,18.92A6.991,6.991,0,0,0,13,5.08V7.1a5,5,0,0,1,0,9.8Z"/>
    <path d="M13,13.722v2.136a3.981,3.981,0,0,0,0-7.716v2.136a1.983,1.983,0,0,1,0,3.444Z"/>
  </g>
</svg>
