<svg width="14" height="15" viewBox="0 0 14 15" fill="none" xmlns="http://www.w3.org/2000/svg">
<path d="M12.3781 6.71806C11.0235 7.78242 9.82938 8.96218 8.91928 10.3248C8.78442 9.9753 8.6572 9.62314 8.54679 9.26496C8.20454 8.15469 6.79465 8.12987 6.14225 8.96652C5.88596 9.29554 5.64105 9.63183 5.40203 9.97193C5.20654 8.80331 4.89722 7.65446 4.47803 6.54017C3.6161 4.29561 2.54734 2.0374 0.965156 0.162997C0.615997 -0.249874 -0.156241 0.195084 0.0279988 0.680992C0.242665 1.24605 0.564664 1.76626 0.735744 2.34373C0.881623 2.83647 1.04458 3.32246 1.21053 3.8105C1.59452 4.90448 1.90805 6.01965 2.14937 7.14981C2.59438 9.33383 2.96958 11.5132 3.04751 13.7404C3.0953 15.1054 4.82355 15.4173 5.60437 14.3981C6.10174 13.749 6.5406 13.0639 6.97637 12.3767C7.17358 12.873 7.36603 13.3718 7.54411 13.8755C7.92547 14.9539 9.76274 15.14 10.0487 13.8755C10.5609 11.6098 11.9586 9.56695 13.7039 7.97706C14.5899 7.17002 13.2916 6.00001 12.3781 6.71806Z" fill="#666666"/>
</svg>
