<!-- This Source Code Form is subject to the terms of the Mozilla Public
   - License, v. 2.0. If a copy of the MPL was not distributed with this
   - file, You can obtain one at http://mozilla.org/MPL/2.0/. -->
<svg xmlns="http://www.w3.org/2000/svg" width="32" height="32" fill="currentColor" viewBox="0 0 32 32"><path d="M.7 18c0 4.9 3.6 8.8 8.1 9.5v4.3H12v-4.3c1.8-.4 3.6-1.1 4.9-2.5.2-.2.2-.2.2-.5-.2-.4-.2-1.1-.2-1.6 0-2 .2-4.9 1.6-7.9 0 0 .9-1.6.7-1.8C18 7.2 14.4 0 10.4 0 5 0 .7 12.6.7 18m17.6 4.8c0 3.1 2.2 5.6 4.9 6.3V32h3.2v-2.9c2.7-.7 4.9-3.2 4.9-6.3 0-3.6-2.9-12.9-6.5-12.9s-6.5 9.3-6.5 12.9"/></svg>
